<?xml version="1.0" encoding="utf-8"?>
<!-- Generator: Adobe Illustrator 16.0.0, SVG Export Plug-In . SVG Version: 6.00 Build 0)  -->
<!DOCTYPE svg PUBLIC "-//W3C//DTD SVG 1.1//EN" "http://www.w3.org/Graphics/SVG/1.1/DTD/svg11.dtd">
<svg version="1.1" id="airphoto" xmlns="http://www.w3.org/2000/svg" xmlns:xlink="http://www.w3.org/1999/xlink" x="0px" y="0px"
	 width="200px" height="200px" viewBox="325 416.5 200 200" enable-background="new 325 416.5 200 200" xml:space="preserve">
<g id="photo" stroke="#282828">
	<polygon id="center" fill="none" points="355.362,571.678 436.615,559.32 501.279,565.977 437.512,582.992 		"/>
	<g>		
		<path id="photoboundary" fill="#282828" stroke="#282828" d="M436.688,562.344l48.038,4.944l-47.404,12.65l-61.041-8.407L436.688,562.344 M436.542,556.297
			l-102.099,15.528l103.258,14.222l80.131-21.383L436.542,556.297L436.542,556.297z"/>
		<polyline id="lines" fill="none" stroke="#282828" stroke-width="6" stroke-linecap="round" stroke-linejoin="round" stroke-miterlimit="10" points="
		489.342,552.587 428.995,497.553 428.997,497.556 368.65,552.589 	"/>
	</g>
		
</g>
<g id="airplane" fill="#282828">
	<path  d="M347.719,471.922c-0.419,0.109-0.605,0.243-0.043,0.51l3.571,1.796c0.657,0.331,1.422,0.376,2.114,0.125
		l14.492-5.268l-2.378-2.502L347.719,471.922z"/>
	<path d="M479.734,449.951c0.074-0.13,0.263-0.415-0.06-0.478l-6.24-0.029l-13.834,6.525l16.534-0.786
		L479.734,449.951z"/>
	<path  d="M393.934,455.496c-0.177-0.313-0.487-0.527-1.342-0.254l-7.811,2.124l9.895-0.236L393.934,455.496z"/>
	<path  d="M425.396,480.005l-43.779,18.151c-1.283,0.522-1.741,0.92-0.35,1.312l8.651,2.259
		c1.241,0.323,2.554,0.234,3.739-0.254l38.089-15.724c0.003-0.001,0.007-0.003,0.012-0.005l11.179-4.614L425.396,480.005z"/>
	<path d="M512.264,473.841c-2.722-4.124-9.192-6.18-11.062-6.702c-1.715,0.784-7.045,2.883-15.576,3.132
		c-0.015,0.003-0.032,0.003-0.049,0.003c-0.914,0-1.665-0.726-1.691-1.645c-0.028-0.937,0.706-1.716,1.642-1.742
		c5.449-0.159,9.458-1.141,11.919-1.947c-0.25-0.174-0.523-0.362-0.751-0.521c-1.841-1.279-3.058-2.123-4.826-3.041
		c-3.609-1.954-7.647-3.046-11.625-2.901l-103.608,2.474c-0.458,0.047-0.968-0.191-1.3-0.563l-16.186-18.015
		c-0.678-0.754-1.656-1.167-2.669-1.127l-11.577,0.457c-0.439,0.019-0.678,0.521-0.412,0.873l16.507,21.827l4.511-1.356
		c0.61-0.183,1.273-0.007,1.713,0.455l4.855,5.111c0.392,0.414,0.551,0.995,0.42,1.55c-0.127,0.555-0.526,1.007-1.06,1.205
		l-3.392,1.235l2.888,3.713l37.874,6.845c0.025,0.004,0.043,0.021,0.068,0.027l15.583-6.461c0.255-0.044,0.5-0.084,0.755-0.126
		l25.233,1.616c0.788,0.049,1.435,0.636,1.563,1.413c0.13,0.778-0.296,1.541-1.025,1.843l-10.251,4.232l48.581,0.521
		c18.176-0.909,22.772-4.707,23.886-6.89C513.972,477.83,513.658,475.979,512.264,473.841z"/>
</g>
</svg>
