<?xml version="1.0" encoding="utf-8"?>
<!-- Generator: Adobe Illustrator 16.0.0, SVG Export Plug-In . SVG Version: 6.00 Build 0)  -->
<!DOCTYPE svg PUBLIC "-//W3C//DTD SVG 1.1//EN" "http://www.w3.org/Graphics/SVG/1.1/DTD/svg11.dtd">
<svg version="1.1" id="maps" xmlns="http://www.w3.org/2000/svg" xmlns:xlink="http://www.w3.org/1999/xlink" x="0px" y="0px"
	 width="200px" height="200px" viewBox="-305.5 396.5 200 200" enable-background="new -305.5 396.5 200 200" xml:space="preserve" fill="#282828">
<g>
	<path d="M-129.722,451.422l-36.088-24.231c-1.585-1.068-3.584-1.068-5.205,0l-33.469,22.474l-33.468-22.474
		c-1.585-1.068-3.619-1.068-5.205,0l-36.088,24.231c-1.517,0.999-2.447,2.86-2.447,4.825v96.855c0,2.034,0.965,3.896,2.551,4.93
		c1.585,0.999,3.55,0.965,5.101-0.069l33.469-22.474l33.469,22.474c1.62,1.068,3.584,1.068,5.205,0l33.503-22.474l33.469,22.474
		c0.792,0.517,1.689,0.827,2.585,0.827c0.862,0,1.724-0.241,2.482-0.724c1.585-1,2.55-2.896,2.55-4.929v-96.856
		C-127.274,454.282-128.205,452.421-129.722,451.422z M-246.189,526.08l-24.473,17.027v-83.31l24.473-17.027V526.08z
		 M-235.16,525.941v-42.188c0.345,0.241,0.689,0.448,1,0.689l3.206-4.481c-1.31-0.931-2.758-1.826-4.205-2.585v-34.778l25.162,16.89
		v37.467c-1.896-0.655-3.757-1.517-5.653-2.723l-2.93,4.688c2.344,1.482,4.688,2.585,7.135,3.378l1.448-4.412v44.912
		L-235.16,525.941z M-198.968,542.797V503.71c0.069,0,0.138,0,0.172,0c1-0.069,1.999-0.173,2.93-0.311l-0.862-5.445
		c-0.724,0.103-1.482,0.206-2.275,0.241v-38.708l25.162-16.89v41.086l-1.827-1.654c-1.034,1.138-1.999,2.275-2.964,3.344
		c-0.621,0.724-1.241,1.413-1.827,2.103l4.136,3.653c0.621-0.689,1.241-1.413,1.86-2.137c0.208-0.241,0.414-0.482,0.655-0.724
		v37.639L-198.968,542.797z M-138.304,542.797l-24.473-16.683v-47.29c1.241-0.552,2.551-0.966,3.826-1.241l-1.103-5.411
		c-0.931,0.172-1.827,0.447-2.757,0.724v-30.16l24.472,16.718v83.344H-138.304z"/>
	<path d="M-258.633,492.577c0.655-2.034,1.207-3.792,2.447-5.619l-4.55-3.102c-1.689,2.481-2.447,4.791-3.171,7.065
		l-0.069,0.276l5.239,1.688L-258.633,492.577z"/>
	<path  d="M-248.327,480.547c0.758-0.413-0.482-0.379,0.345-0.62l-1.689-5.239c-1.138,0.379-2.241,0.827-3.309,1.413
		c-1.31,0.725-2.654,1.689-3.895,2.861l3.757,4.032C-252.222,482.133-249.257,481.03-248.327,480.547z"/>
	<path  d="M-190.592,496.058l2.413,4.964c2.275-1.104,4.412-2.551,6.583-4.481l-3.654-4.136
		C-187.042,493.99-188.766,495.196-190.592,496.058z"/>
	<path d="M-224.543,486.304c-0.345-0.414-0.689-0.827-1.034-1.241l-4.205,3.585c0.345,0.413,0.689,0.793,1,1.206
		c1.241,1.482,2.516,2.999,3.998,4.412l3.792-3.998C-222.234,489.061-223.337,487.717-224.543,486.304z"/>
	<polygon  points="-152.195,483.512 -148.645,479.927 -145.095,483.512 -141.165,479.582 -144.75,476.032 
		-141.165,472.481 -145.095,468.553 -148.645,472.137 -152.195,468.553 -156.125,472.481 -152.54,476.032 -156.125,479.582 	"/>
</g>
</svg>
