<?xml version="1.0" encoding="utf-8"?>
<!-- Svg Vector Icons : http://www.onlinewebfonts.com/icon -->
<!DOCTYPE svg PUBLIC "-//W3C//DTD SVG 1.1//EN" "http://www.w3.org/Graphics/SVG/1.1/DTD/svg11.dtd">
<svg version="1.1" xmlns="http://www.w3.org/2000/svg" xmlns:xlink="http://www.w3.org/1999/xlink" x="0px" y="0px" viewBox="0 0 1000 1000" enable-background="new 0 0 1000 1000" xml:space="preserve">
<metadata> Svg Vector Icons : http://www.onlinewebfonts.com/icon </metadata>
<g><g transform="translate(0.000000,511.000000) scale(0.100000,-0.100000)"><path d="M1614.9,3792.7c-85.9-35.3-132.2-88.1-209.3-240.2c-176.3-348.1-431.9-594.9-720.5-691.9c-55.1-17.6-178.5-44.1-271-55.1c-193.9-24.2-260-68.3-299.7-202.7c-22-68.3-19.8-94.7,15.4-167.5c63.9-127.8,156.5-167.5,361.4-147.6c390,33.1,672.1,171.9,987.2,484.8l224.8,224.7l99.2-127.8c326.1-425.3,755.8-643.4,1119.4-572.9c317.3,61.7,707.3,337.1,982.8,694.1l50.7,66.1l68.3-88.1c238-304.1,537.7-553.1,758-632.4c176.3-63.9,416.5-61.7,579.5,2.2c233.6,94.8,531.1,330.5,780,614.8l83.7,97l33.1-48.5c266.6-381.2,634.6-647.8,974-707.3c372.4-66.1,775.6,119,1143.6,522.2l149.8,165.3l127.8-165.3c152-198.3,301.9-323.9,504.6-420.9c165.3-81.5,418.7-134.4,533.2-112.4c103.6,19.8,209.3,145.4,209.3,246.8c0,169.7-94.7,255.6-306.3,279.8c-282.1,33.1-504.6,224.8-676.5,583.9c-55.1,116.8-112.4,238-125.6,266.6c-63.9,130-253.4,185.1-374.6,105.8c-28.6-17.6-97-110.2-152.1-204.9c-224.7-390-491.4-652.2-736-729.4c-158.7-48.5-312.9-19.8-487,94.8c-145.4,99.2-354.8,352.6-478.2,586.1c-46.3,88.1-105.8,182.9-130,209.3c-68.3,77.1-169.7,101.4-271,68.3c-70.5-24.2-108-61.7-229.2-238c-200.5-293.1-500.2-599.4-667.7-683.1c-72.7-35.3-163.1-66.1-202.7-66.1c-182.9,0-484.8,257.8-694.1,592.7c-227,363.6-227,363.6-323.9,394.4c-152,48.5-227-2.2-409.8-277.6c-180.7-268.8-442.9-542.1-610.4-632.4c-147.6-79.3-317.3-88.1-447.3-24.2c-191.7,94.8-414.3,361.4-597.1,711.7c-46.3,88.1-105.8,171.9-132.2,189.5C1780.1,3803.7,1678.8,3819.2,1614.9,3792.7z"/><path d="M1542.2,1765.5c-33.1-24.2-99.2-121.2-147.6-213.7c-231.4-445.1-555.3-691.9-951.9-725c-180.7-15.4-273.2-66.1-319.5-178.5c-46.3-110.2-4.4-235.8,103.6-308.5c70.5-48.5,92.6-52.9,253.4-39.7c222.6,15.4,372.4,59.5,583.9,169.7c198.3,103.6,394.4,260,528.8,427.5l99.2,121.2l63.9-81.5c152-196.1,442.9-458.3,586.1-528.8c478.2-231.4,874.8-112.4,1392.6,414.3l235.8,238l77.1-105.8c44.1-59.5,167.5-189.5,273.2-290.9c222.6-211.5,409.9-319.5,625.8-354.8c268.8-46.3,553.1,63.9,879.2,341.5c90.3,77.1,213.7,202.7,275.4,275.4c59.5,74.9,112.4,134.4,119,134.4c6.6,2.2,35.3-35.3,66.1-79.3c171.9-257.8,511.2-535.4,760.2-628c187.3-68.3,498-66.1,678.7,2.2c200.5,77.1,438.5,251.2,628,456.1l174.1,189.5l50.7-74.9c257.8-372.4,588.3-588.3,954.1-625.8c227-22,368,74.9,368,253.4c0,160.9-85.9,238-299.7,268.8c-79.3,11-182.9,39.7-231.4,66.1c-204.9,103.6-396.6,345.9-513.4,647.8c-77.1,193.9-156.4,275.4-279.8,275.4s-209.3-50.7-264.4-160.9c-171.9-337.1-467.1-663.3-696.3-769c-123.4-59.5-158.7-66.1-273.2-55.1c-282.1,24.2-581.7,304.1-808.7,755.8c-83.7,167.5-158.7,229.2-271,229.2c-132.2,0-189.5-39.7-301.9-207.1c-246.8-372.4-559.7-680.9-760.2-755.8c-178.5-63.9-343.7-2.2-550.9,207.1c-125.6,123.4-412.1,526.6-412.1,575.1c0,13.2-35.3,59.5-77.1,103.6c-66.1,66.1-92.6,77.1-178.5,77.1c-55.1,0-119-11-141-22c-24.2-13.2-114.6-130-202.7-260c-295.3-434.1-630.2-709.5-863.8-709.5c-257.8,2.2-542.1,275.4-797.7,766.8c-52.9,103.6-105.8,174.1-143.2,193.9C1742.7,1827.2,1608.3,1820.6,1542.2,1765.5z"/><path d="M1575.2-162.6c-52.9-28.6-94.8-83.7-169.7-227c-110.2-211.5-249-392.2-390-504.6c-178.5-143.2-458.3-246.8-669.9-246.8c-154.2,0-279.8-187.3-229.2-341.5c50.7-152.1,182.9-200.5,445.1-165.3c370.2,50.7,614.8,180.7,925.5,487L1703-947l112.4-141c330.5-416.4,720.5-619.2,1081.9-561.9c288.6,46.3,680.9,304.1,934.3,614.8c59.5,74.9,114.6,134.4,123.4,134.4c8.8,2.2,59.5-55.1,114.6-125.6c149.8-196.1,412.1-429.7,579.5-517.8c295.3-154.2,513.4-152.1,841.7,8.8c160.8,79.3,227,132.2,462.7,365.8c275.4,271,277.6,273.2,310.7,222.5c79.3-121.2,297.5-352.6,416.5-447.3c288.7-220.4,583.9-304.1,870.4-246.8c352.6,72.7,617,260,962.9,683.1c6.6,11,37.5-17.6,63.9-61.7c136.6-220.4,390-447.3,608.1-544.3c167.5-77.1,427.5-116.8,528.8-83.7c158.7,52.9,229.2,227,152.1,374.6c-41.9,81.5-121.2,121.2-275.4,141c-66.1,8.8-165.3,35.3-215.9,57.3c-152.1,68.3-337.1,275.4-453.9,506.8c-55.1,112.4-101.3,215.9-101.3,233.6c0,57.3-130,180.7-209.3,193.9c-101.3,19.8-222.5-33-271-121.2c-110.2-202.7-301.9-467.1-429.7-594.9c-412.1-412-788.8-361.4-1176.7,156.5c-50.7,66.1-127.8,191.7-174.1,275.4c-103.6,193.9-174.1,271-262.2,288.7c-132.2,24.3-213.8-33-365.8-257.8c-167.5-246.8-520-610.4-658.9-683.1c-222.5-114.6-414.2-50.7-663.2,218.2C4481.6-720,4417.7-629.7,4212.8-297c-81.5,134.4-187.3,185.1-308.5,149.8c-90.3-26.4-108-46.3-312.9-343.7c-279.8-403.2-579.5-636.8-817.5-636.8c-262.2,0-553.1,275.4-793.3,751.4c-44.1,88.1-103.6,176.3-132.2,193.9C1766.9-129.5,1656.7-120.7,1575.2-162.6z"/><path d="M1542.2-2112.7c-33.1-24.2-99.2-121.2-147.6-213.7c-231.4-447.3-550.9-689.7-960.7-729.4c-182.9-17.6-264.4-61.7-310.7-174.1c-46.3-110.2-4.4-235.8,103.6-308.5c70.5-48.5,90.3-52.9,262.2-39.7c423.1,30.8,817.5,251.2,1130.4,625.8l79.3,94.7l79.3-110.2c112.4-154.2,403.2-420.9,535.5-491.4c163.1-88.1,365.8-136.6,526.6-121.2c299.7,28.6,555.3,178.5,894.6,524.4l233.6,238l88.1-116.8c130-171.9,350.4-385.6,498-480.4c149.8-96.9,372.4-171.9,506.8-171.9c299.7,0,742.6,271,1040,634.6c59.5,74.9,112.4,134.4,119,134.4c6.6,2.2,35.3-35.3,66.1-79.3c97-145.4,350.4-396.6,493.6-489.2c533.2-348.1,1070.9-233.6,1593.1,339.3l152,167.5l114.6-152c242.4-326.1,553.1-515.6,894.6-548.7c224.7-19.8,365.8,77.1,365.8,255.6c0,160.8-85.9,238-299.7,268.8c-79.3,11-182.9,39.7-231.4,66.1c-204.9,103.6-396.6,345.9-513.4,647.8c-77.1,193.9-156.4,275.4-279.8,275.4s-209.3-50.7-264.4-160.8c-174.1-339.3-462.7-661.1-691.9-766.8c-127.8-61.7-163.1-68.3-277.6-57.3c-282.1,24.3-581.7,304.1-808.7,755.8c-83.7,167.5-158.7,229.2-271,229.2c-132.2,0-189.5-39.7-301.9-207.1c-246.8-372.4-559.7-680.9-760.2-755.8c-180.7-66.1-337.1-8.8-544.3,198.3c-130,130-418.7,533.3-418.7,583.9c0,13.2-35.3,59.5-77.1,103.6c-66.1,66.1-92.6,77.1-178.5,77.1c-55.1,0-119-11-141-22c-24.2-13.2-114.6-130-202.7-260c-297.5-438.5-630.2-709.5-866-709.5c-251.2,2.2-539.9,277.6-784.4,744.8c-61.7,123.4-114.6,193.9-154.2,215.9C1742.7-2050.9,1608.3-2057.6,1542.2-2112.7z"/></g></g>
</svg>