<?xml version="1.0" encoding="utf-8"?>
<!-- Generator: Adobe Illustrator 16.0.0, SVG Export Plug-In . SVG Version: 6.00 Build 0)  -->
<!DOCTYPE svg PUBLIC "-//W3C//DTD SVG 1.1//EN" "http://www.w3.org/Graphics/SVG/1.1/DTD/svg11.dtd">
<svg version="1.1" id="wisconsin" xmlns="http://www.w3.org/2000/svg" xmlns:xlink="http://www.w3.org/1999/xlink" x="0px" y="0px"
	 width="200px" height="200px" viewBox="-297.5 411.5 200 200" enable-background="new -297.5 411.5 200 200" xml:space="preserve" fill="#FFFFFF" stroke="#000000" stroke-width="4" stroke-linecap="round" stroke-linejoin="round" stroke-miterlimit="10">
<g id="door" transform="matrix(1.3333333 0 0 -1.3333333 480 480)">
	
		<path d="
		M-452.383-6.411l0.106-1.914l-0.583-1.8l-0.599-1.935l-1.263-2.245l-1.068-2.667l-0.958-1.776l-0.991-1.593l-1.47,1.469
		l-0.218,2.313l1.243,2.578l1.305,2.783l1.965,1.712l0.965,1.967L-452.383-6.411L-452.383-6.411"/>
</g>
<g id="mainland" transform="matrix(1.3333333 0 0 -1.3333333 480 480)">
	
		<path  d="
		M-526.222,38.204l1.364-3.199l-1.682-2.336l-0.568-2.587l2.91-0.428l2.342-0.795l1.255-0.988l2.026-0.604l1.51-0.699l2.275-0.968
		l1.37-1.606l0.844-2.048l2.751-1.656l2.482-0.688l2.02-0.554l1.748-0.477l2.595-0.708l2.814-0.762l1.98-0.53l2.535-0.687
		l1.638-0.668l1.692-0.961l1.979-1.12l2.262-0.434l2.109-1.024l2.98,0.316l1.709-0.268l2.684-0.796l1.998-0.606l0.565-2.601
		l1.373-1.433l1.95-0.642l1.564-0.417l1.101-2.032l0.11-3.298l-0.141-2.253l1.931-2.332l0.822-1.993l-0.78-2.251l0.381-1.701
		l1.351-1.367l0.357-1.805l-1.239-1.833l-1.865-0.443l-0.967-2.358l-1.378-2.047l-1.291-2.85l2.618-2.107l2.287,1.693l0.399,1.463
		l1.36,2.194l1.501,0.954l3.156,0.09l1.599-1.888l-0.974-2.599l-1.358-2.574l-0.628-1.955l-0.523-3.037l-0.377-3.273l0.628-2.245
		l-2.213-2.355l-0.685-2.048l-0.642-2.042l-0.538-3.173l0.48-2.079l0.138-2.695l-1.385-2.757l-0.247-2.002l-1.295-3.143l-0.58-2.751
		l-0.103-1.98l0.426-1.593l0.224-1.893l0.007-2.811l0.738-1.367l0.705-3.205l0.686-1.943l-0.222-1.699l-0.459-2.046l0.183-1.751
		l-3.058-1.634l-2.489-0.034l-1.904-0.052l-2.364-0.065l-2.484-0.051l-1.888-0.029l-2.585-0.042l-2.015-0.094l-2.762-0.004
		l-2.681,0.031l-1.687-0.007l-2.293,0.011l-3.374,0.037l-3.475,0.034l-3.479,0.069l-2.394,0.001h-1.991l-3.076,0.07l-2.084-0.006
		l-1.594-0.004l-1.981-0.006l-1.594,0.01l-2.574,0.032l-2.282,2.448l-2.66,1.734l-2.28,0.688l-2.271,1.488l-0.595,1.851
		l-0.437,2.154l-0.887,1.94l-0.588,2.956l0.485,2.254l1.072,1.806l-0.557,3.218l-1.531,2.792l-0.548,3.412l-0.379,2.41l0.035,2.099
		l-0.047,2.295l-0.876,1.91l-1.7,2.487l-2.465,1.695l-1.571,0.719l-1.64,1.42l-1.132,1.028l-1.539,1.236l-1.263,2.476l-1.108,2.429
		l-1.829,1.21l-2.056,0.822l-2.791,2.073l-1.633,1.646l-2.172,0.332l-1.242,0.869l-1.951,1.912l-1.622,1.618l-0.174,3.439
		l0.41,2.506l-0.342,1.501l-0.012,2.56l0.423,1.994l0.068,1.932l1.042,2.46l0.34,1.145l0.315,2.757l-0.809,1.876l-1.705,0.799
		l-1.286,1.188l0.361,2.681l1.248,1.165l1.217,2.571l1.38,1.729l2.698,1.753l1.713,0.542l2.256,1.507l0.883,1.445l0.077,2.38
		l0.05,1.69l0.093,3.101l0.064,1.9l0.073,2.312l0.044,1.321l0.883,2.256l1.269,1.118l2.803,0.309l2.494-0.68l2.159,0.207
		l1.545,0.637l1.737,0.665l2.269,0.482l2.694,1.106l1.728,0.727l1.774,0.387l1.781,0.77l2.255,1.571l1.684,0.653l0.005,0.001
		L-526.222,38.204L-526.222,38.204"/>
</g>
</svg>
